<svg xmlns="http://www.w3.org/2000/svg" version="1.1" xmlns:xlink="http://www.w3.org/1999/xlink" width="400" height="400"><svg width="400" height="400" viewBox="0 0 400 400" fill="none" xmlns="http://www.w3.org/2000/svg">
<path d="M190.438 99.5897C190.438 135.235 144.809 160.147 109.163 160.147C73.5179 160.147 38.2471 143.203 38.2471 107.558C38.2471 71.9123 83.8765 47 119.522 47C155.167 47 190.438 63.9442 190.438 99.5897Z" fill="#8BD8BD"></path>
<path d="M210.359 99.5897C210.359 135.235 255.988 160.147 291.633 160.147C327.279 160.147 362.55 143.203 362.55 107.558C362.55 71.9123 316.92 47 281.275 47C245.629 47 210.359 63.9442 210.359 99.5897Z" fill="#8BD8BD"></path>
<path d="M400 272.498C400 319.585 364.552 352.976 313.944 352.976C263.337 352.976 210.359 305.243 210.359 258.155C210.359 211.068 245.01 177.677 295.618 177.677C346.225 177.677 400 225.411 400 272.498Z" fill="#8BD8BD"></path>
<path d="M0.00011909 272.498C0.00011909 319.585 35.4481 352.976 86.0559 352.976C136.664 352.976 189.642 305.243 189.642 258.155C189.642 211.068 154.99 177.677 104.383 177.677C53.7748 177.677 0.00011909 225.411 0.00011909 272.498Z" fill="#8BD8BD"></path>
</svg><style>@media (prefers-color-scheme: light) { :root { filter: none; } }
@media (prefers-color-scheme: dark) { :root { filter: none; } }
</style></svg>